<svg xmlns="http://www.w3.org/2000/svg" fill="none" viewBox="0 0 24 24" id="Mail-Send-Email-Message--Streamline-Core.svg" height="18" width="18"><desc>Mail Send Email Message Streamline Icon: https://streamlinehq.com</desc><g id="mail-send-email-message--send-email-paper-airplane-deliver"><path id="Subtract" fill="#ffffff" fill-rule="evenodd" d="M23.74902857142857 0.251076c0.23948571428571425 0.23952 0.3154285714285714 0.5976325714285714 0.19388571428571427 0.913788L15.371434285714287 23.45057142857143c-0.12397714285714284 0.3222857142857143 -0.4293085714285714 0.5388000000000001 -0.7745314285714285 0.5490857142857142 -0.3452228571428571 0.010285714285714285 -0.6628628571428571 -0.1877142857142857 -0.8057828571428571 -0.5021142857142856L10.206617142857143 15.611657142857142l5.273948571428571 -5.273948571428571c0.5020971428571428 -0.5020971428571428 0.5020971428571428 -1.3161771428571427 0 -1.8182742857142855s-1.3161771428571427 -0.5020971428571428 -1.8182742857142855 0L8.388325714285713 13.7934 0.5024571428571428 10.208914285714284c-0.3144154285714285 -0.14292 -0.5123413885714285 -0.46057714285714285 -0.502076148 -0.8058C0.010646297142857142 9.057908571428571 0.22709828571428572 8.75256 0.5494491428571429 8.628582857142856L22.835142857142856 0.05715702857142857c0.31611428571428574 -0.12159805714285714 0.6742285714285714 -0.04560145714285714 0.9138857142857143 0.1939189714285714Z" clip-rule="evenodd" stroke-width="1"></path></g></svg>